<svg width="24" height="24" viewBox="0 0 24 24" xmlns="http://www.w3.org/2000/svg">
  <path d="M18.643 0A5.357 5.357 0 0 1 24 5.357V8.21c-.305.019-2.506.65-2.52 3.79-.012 3.14 2.214 3.727 2.52 3.744v2.9A5.357 5.357 0 0 1 18.643 24H5.357A5.357 5.357 0 0 1 0 18.643V5.357A5.357 5.357 0 0 1 5.357 0h13.286Z" fill="#FF2E63"/>
  <path d="M11.967 5.57c-2.633 0-4.313 1.417-4.313 3.544 0 1.573.831 2.697 2.46 3.302l2.182.848c1.091.432 1.472.812 1.472 1.556 0 .847-.589 1.331-1.628 1.331-1.23 0-1.975-.778-1.975-2.092H7.36c0 2.715 1.784 4.306 4.764 4.306 2.685 0 4.452-1.47 4.452-3.735 0-1.626-.763-2.75-2.443-3.407l-2.01-.795c-1.195-.484-1.662-.9-1.662-1.574 0-.726.537-1.193 1.455-1.193 1.091 0 1.68.623 1.68 1.747h2.806c0-2.335-1.767-3.839-4.434-3.839Z" fill="#fff"/>
</svg>